# xmcd CD database file
#
# Track frame offsets:
#	183
#	20020
#	36258
#	51333
#	68208
#	83770
#	98758
#	112458
#	130158
#	148458
#	163608
#	180408
#	192820
#	204670
#	218583
#	233745
#
# Disc length: 3336 seconds
#
# Revision: 0
# Processed by: cddbd v1.4b41PL2 Copyright (c) Steve Scherf et al.
# Submitted via: Feurio! 1.61 - http://www.feurio.com
#
DISCID=eb0d0610
DTITLE=Various Artist - Hot Dance Hits
DYEAR=1900
DGENRE=
TTITLE0=Playahitty - The Summer Is Magic (Remix)
TTITLE1=Fun Factory - Close To You
TTITLE2=The Stone Band - Meet The Flintstones
TTITLE3=Amos - Sweet Music
TTITLE4=Mo-Do - Eins, Zwei, Polizei
TTITLE5=Ramirez - Bomba
TTITLE6=Magic Paper - Tonight Is The Night
TTITLE7=Staf Bennett - Can You Feel My Luv
TTITLE8=Whigfield - Saturday Night
TTITLE9=Paradise Fall - 7 Seconds
TTITLE10=Thelma Houston - Don't Leave Me This Way
TTITLE11=Omnia Tria - Can't Stop The Movin
TTITLE12=T.H. Express Feat. Moe - (I'm) On Your Side
TTITLE13=K.3.M Feat. Gale Robinson - I'm Freaky
TTITLE14=Systematic - I Got The Music
TTITLE15=Da Blitz - Take My Way
EXTD=Edizione Speciale Per "Fiat Cinquecento Sporting"
EXTT0=
EXTT1=
EXTT2=
EXTT3=
EXTT4=
EXTT5=
EXTT6=
EXTT7=
EXTT8=
EXTT9=
EXTT10=
EXTT11=
EXTT12=
EXTT13=
EXTT14=
EXTT15=
PLAYORDER=
